# xmcd CD database file
#
# Track frame offsets:
#	150
#	23767
#	37765
#	64545
#	91230
#	118660
#	139930
#	175470
#	194275
#	214927
#	243420
#	254612
#
# Disc length: 3700 seconds
#
# Revision: 1
# Processed by: cddbd v1.5.2PL0 Copyright (c) Steve Scherf et al.
# Submitted via: CDex 1.70beta2
#
DISCID=a70e720c
DTITLE=松谷卓 - 松谷卓 Best Album ～映像音楽集
DYEAR=1900
DGENRE=Jazz
TTITLE0=組曲「タッチ」
TTITLE1=決められた運命
TTITLE2=いま、会いにゆきます - 時を越えて
TTITLE3=Inscrutable Battle
TTITLE4=出会い
TTITLE5=TAKUMI - 匠
TTITLE6=Phoenix
TTITLE7=木漏れ日
TTITLE8=Stargazer
TTITLE9=七人の弔 - Long Version
TTITLE10=七人の弔 - 目覚め
TTITLE11=Mysterious Africa ～象物語テーマ
EXTD=
EXTT0=
EXTT1=
EXTT2=
EXTT3=
EXTT4=
EXTT5=
EXTT6=
EXTT7=
EXTT8=
EXTT9=
EXTT10=
EXTT11=
PLAYORDER=
